<?xml version="1.0" encoding="utf-8"?>
<!-- Generator: Adobe Illustrator 17.1.0, SVG Export Plug-In . SVG Version: 6.00 Build 0)  -->
<!DOCTYPE svg PUBLIC "-//W3C//DTD SVG 1.1//EN" "http://www.w3.org/Graphics/SVG/1.1/DTD/svg11.dtd">
<svg version="1.1" id="Layer_1" xmlns="http://www.w3.org/2000/svg" xmlns:xlink="http://www.w3.org/1999/xlink" x="0px" y="0px"
	 viewBox="0 0 16 16" enable-background="new 0 0 16 16" xml:space="preserve">
<g id="interface_-_open_incoming_link_download_2_">
	<g>
		<path fill="#747F8D" d="M13.5,0H2C1.4,0,1,0.4,1,1v10.1c0,0.6,0.4,1,1,1h2.2v-0.6H2.3c-0.4,0-0.6-0.3-0.6-0.6V1.3
			c0-0.4,0.3-0.6,0.6-0.6h10.9c0.4,0,0.6,0.3,0.6,0.6v9.6c0,0.4-0.3,0.6-0.6,0.6h-1.9v0.6h2.2c0.5,0,1-0.4,1-1V1
			C14.4,0.4,14,0,13.5,0z M8,3.9C7.9,3.8,7.8,3.8,7.7,3.8S7.5,3.8,7.5,4L5,6.4C4.8,6.5,4.8,6.8,5,6.9C5.1,7,5.3,7,5.5,6.9L7.4,5
			v10.7c0,0.2,0.1,0.3,0.3,0.3C7.9,16,8,15.9,8,15.7V5l2,2c0.1,0.1,0.4,0.1,0.5,0c0.1-0.1,0.1-0.4,0-0.5L8,3.9z"/>
	</g>
</g>
</svg>
